<?xml version="1.0" encoding="UTF-8" standalone="no"?>
<!DOCTYPE svg PUBLIC "-//W3C//DTD SVG 1.1//EN"
 "http://www.w3.org/Graphics/SVG/1.1/DTD/svg11.dtd">
<!-- Generated by graphviz version 2.43.20190912.0211 (20190912.0211)
 -->
<!-- Title: AST Pages: 1 -->
<svg width="548pt" height="404pt"
 viewBox="0.00 0.00 547.99 404.00" xmlns="http://www.w3.org/2000/svg" xmlns:xlink="http://www.w3.org/1999/xlink">
<g id="graph0" class="graph" transform="scale(1 1) rotate(0) translate(4 400)">
<title>AST</title>
<polygon fill="white" stroke="transparent" points="-4,4 -4,-400 543.99,-400 543.99,4 -4,4"/>
<!-- x0x557292a9e800 -->
<g id="node1" class="node">
<title>x0x557292a9e800</title>
<ellipse fill="none" stroke="#000d16" cx="226.64" cy="-378" rx="69.59" ry="18"/>
<text text-anchor="middle" x="226.64" y="-374.3" font-family="Times,serif" font-size="14.00">[declaration]</text>
</g>
<!-- x0x557292a9e860 -->
<g id="node2" class="node">
<title>x0x557292a9e860</title>
<ellipse fill="none" stroke="#021d28" cx="117.64" cy="-306" rx="117.78" ry="18"/>
<text text-anchor="middle" x="117.64" y="-302.3" font-family="Times,serif" font-size="14.00">[declaration specifiers]</text>
</g>
<!-- x0x557292a9e800&#45;&gt;x0x557292a9e860 -->
<g id="edge1" class="edge">
<title>x0x557292a9e800&#45;&gt;x0x557292a9e860</title>
<path fill="none" stroke="black" d="M201.91,-361.12C187.28,-351.72 168.52,-339.68 152.42,-329.34"/>
<polygon fill="black" stroke="black" points="154.1,-326.26 143.8,-323.8 150.32,-332.15 154.1,-326.26"/>
</g>
<!-- x0x557292a9e960 -->
<g id="node4" class="node">
<title>x0x557292a9e960</title>
<ellipse fill="none" stroke="#103e55" cx="336.64" cy="-306" rx="83.39" ry="18"/>
<text text-anchor="middle" x="336.64" y="-302.3" font-family="Times,serif" font-size="14.00">[declarator list]</text>
</g>
<!-- x0x557292a9e800&#45;&gt;x0x557292a9e960 -->
<g id="edge3" class="edge">
<title>x0x557292a9e800&#45;&gt;x0x557292a9e960</title>
<path fill="none" stroke="black" d="M251.6,-361.12C266.58,-351.59 285.84,-339.33 302.24,-328.89"/>
<polygon fill="black" stroke="black" points="304.46,-331.63 311.01,-323.31 300.7,-325.72 304.46,-331.63"/>
</g>
<!-- x0x557292a9e8c0 -->
<g id="node3" class="node">
<title>x0x557292a9e8c0</title>
<ellipse fill="none" stroke="#262d33" cx="117.64" cy="-234" rx="27" ry="18"/>
<text text-anchor="middle" x="117.64" y="-230.3" font-family="Times,serif" font-size="14.00">int</text>
</g>
<!-- x0x557292a9e860&#45;&gt;x0x557292a9e8c0 -->
<g id="edge2" class="edge">
<title>x0x557292a9e860&#45;&gt;x0x557292a9e8c0</title>
<path fill="none" stroke="black" d="M117.64,-287.7C117.64,-279.98 117.64,-270.71 117.64,-262.11"/>
<polygon fill="black" stroke="black" points="121.14,-262.1 117.64,-252.1 114.14,-262.1 121.14,-262.1"/>
</g>
<!-- x0x557292a9e9c0 -->
<g id="node5" class="node">
<title>x0x557292a9e9c0</title>
<ellipse fill="none" stroke="#4f8ba7" cx="282.64" cy="-234" rx="65.79" ry="18"/>
<text text-anchor="middle" x="282.64" y="-230.3" font-family="Times,serif" font-size="14.00">[declarator]</text>
</g>
<!-- x0x557292a9e960&#45;&gt;x0x557292a9e9c0 -->
<g id="edge4" class="edge">
<title>x0x557292a9e960&#45;&gt;x0x557292a9e9c0</title>
<path fill="none" stroke="black" d="M323.57,-288.05C317.07,-279.63 309.08,-269.28 301.9,-259.97"/>
<polygon fill="black" stroke="black" points="304.47,-257.57 295.59,-251.79 298.93,-261.84 304.47,-257.57"/>
</g>
<!-- x0x557292a9ea80 -->
<g id="node7" class="node">
<title>x0x557292a9ea80</title>
<ellipse fill="none" stroke="#4f8ba7" cx="431.64" cy="-234" rx="65.79" ry="18"/>
<text text-anchor="middle" x="431.64" y="-230.3" font-family="Times,serif" font-size="14.00">[declarator]</text>
</g>
<!-- x0x557292a9e960&#45;&gt;x0x557292a9ea80 -->
<g id="edge6" class="edge">
<title>x0x557292a9e960&#45;&gt;x0x557292a9ea80</title>
<path fill="none" stroke="black" d="M359.15,-288.41C371.79,-279.1 387.71,-267.37 401.42,-257.27"/>
<polygon fill="black" stroke="black" points="403.64,-259.98 409.62,-251.23 399.49,-254.34 403.64,-259.98"/>
</g>
<!-- x0x557292a9eb40 -->
<g id="node6" class="node">
<title>x0x557292a9eb40</title>
<ellipse fill="none" stroke="#92afbf" cx="282.64" cy="-162" rx="27" ry="18"/>
<text text-anchor="middle" x="282.64" y="-158.3" font-family="Times,serif" font-size="14.00">$X</text>
</g>
<!-- x0x557292a9e9c0&#45;&gt;x0x557292a9eb40 -->
<g id="edge5" class="edge">
<title>x0x557292a9e9c0&#45;&gt;x0x557292a9eb40</title>
<path fill="none" stroke="black" d="M282.64,-215.7C282.64,-207.98 282.64,-198.71 282.64,-190.11"/>
<polygon fill="black" stroke="black" points="286.14,-190.1 282.64,-180.1 279.14,-190.1 286.14,-190.1"/>
</g>
<!-- x0x557292a9ea20 -->
<g id="node8" class="node">
<title>x0x557292a9ea20</title>
<ellipse fill="none" stroke="#b1bac1" cx="404.64" cy="-162" rx="51.19" ry="18"/>
<text text-anchor="middle" x="404.64" y="-158.3" font-family="Times,serif" font-size="14.00">[pointer]</text>
</g>
<!-- x0x557292a9ea80&#45;&gt;x0x557292a9ea20 -->
<g id="edge7" class="edge">
<title>x0x557292a9ea80&#45;&gt;x0x557292a9ea20</title>
<path fill="none" stroke="black" d="M425.1,-216.05C422.06,-208.18 418.38,-198.62 414.97,-189.79"/>
<polygon fill="black" stroke="black" points="418.17,-188.35 411.3,-180.28 411.64,-190.86 418.17,-188.35"/>
</g>
<!-- x0x557292a9ed60 -->
<g id="node13" class="node">
<title>x0x557292a9ed60</title>
<ellipse fill="none" stroke="#92afbf" cx="500.64" cy="-162" rx="27" ry="18"/>
<text text-anchor="middle" x="500.64" y="-158.3" font-family="Times,serif" font-size="14.00">$y</text>
</g>
<!-- x0x557292a9ea80&#45;&gt;x0x557292a9ed60 -->
<g id="edge12" class="edge">
<title>x0x557292a9ea80&#45;&gt;x0x557292a9ed60</title>
<path fill="none" stroke="black" d="M447.99,-216.41C457.26,-207 468.98,-195.12 479.01,-184.94"/>
<polygon fill="black" stroke="black" points="481.75,-187.15 486.28,-177.57 476.76,-182.24 481.75,-187.15"/>
</g>
<!-- x0x557292a9eae0 -->
<g id="node9" class="node">
<title>x0x557292a9eae0</title>
<ellipse fill="none" stroke="#e6e1de" cx="321.64" cy="-90" rx="97.48" ry="18"/>
<text text-anchor="middle" x="321.64" y="-86.3" font-family="Times,serif" font-size="14.00">[type qualifier list]</text>
</g>
<!-- x0x557292a9ea20&#45;&gt;x0x557292a9eae0 -->
<g id="edge8" class="edge">
<title>x0x557292a9ea20&#45;&gt;x0x557292a9eae0</title>
<path fill="none" stroke="black" d="M385.81,-145.12C375.08,-136.07 361.44,-124.57 349.5,-114.49"/>
<polygon fill="black" stroke="black" points="351.46,-111.57 341.56,-107.8 346.94,-116.92 351.46,-111.57"/>
</g>
<!-- x0x557292a9ece0 -->
<g id="node12" class="node">
<title>x0x557292a9ece0</title>
<ellipse fill="none" stroke="#b1bac1" cx="488.64" cy="-90" rx="51.19" ry="18"/>
<text text-anchor="middle" x="488.64" y="-86.3" font-family="Times,serif" font-size="14.00">[pointer]</text>
</g>
<!-- x0x557292a9ea20&#45;&gt;x0x557292a9ece0 -->
<g id="edge11" class="edge">
<title>x0x557292a9ea20&#45;&gt;x0x557292a9ece0</title>
<path fill="none" stroke="black" d="M423.7,-145.12C434.98,-135.72 449.44,-123.67 461.85,-113.33"/>
<polygon fill="black" stroke="black" points="464.21,-115.91 469.65,-106.82 459.73,-110.53 464.21,-115.91"/>
</g>
<!-- x0x557292a9ebe0 -->
<g id="node10" class="node">
<title>x0x557292a9ebe0</title>
<ellipse fill="none" stroke="#807b77" cx="272.64" cy="-18" rx="36" ry="18"/>
<text text-anchor="middle" x="272.64" y="-14.3" font-family="Times,serif" font-size="14.00">const</text>
</g>
<!-- x0x557292a9eae0&#45;&gt;x0x557292a9ebe0 -->
<g id="edge9" class="edge">
<title>x0x557292a9eae0&#45;&gt;x0x557292a9ebe0</title>
<path fill="none" stroke="black" d="M309.78,-72.05C303.79,-63.5 296.42,-52.97 289.83,-43.56"/>
<polygon fill="black" stroke="black" points="292.66,-41.49 284.05,-35.31 286.92,-45.51 292.66,-41.49"/>
</g>
<!-- x0x557292a9ec60 -->
<g id="node11" class="node">
<title>x0x557292a9ec60</title>
<ellipse fill="none" stroke="#807b77" cx="371.64" cy="-18" rx="44.69" ry="18"/>
<text text-anchor="middle" x="371.64" y="-14.3" font-family="Times,serif" font-size="14.00">volatile</text>
</g>
<!-- x0x557292a9eae0&#45;&gt;x0x557292a9ec60 -->
<g id="edge10" class="edge">
<title>x0x557292a9eae0&#45;&gt;x0x557292a9ec60</title>
<path fill="none" stroke="black" d="M333.74,-72.05C339.76,-63.63 347.15,-53.28 353.81,-43.97"/>
<polygon fill="black" stroke="black" points="356.68,-45.96 359.65,-35.79 350.99,-41.89 356.68,-45.96"/>
</g>
</g>
</svg>
