<?xml version="1.0" encoding="UTF-8" standalone="no"?>
<!DOCTYPE svg PUBLIC "-//W3C//DTD SVG 1.1//EN"
 "http://www.w3.org/Graphics/SVG/1.1/DTD/svg11.dtd">
<!-- Generated by graphviz version 2.42.3 (0)
 -->
<!-- Title: AST Pages: 1 -->
<svg width="468pt" height="332pt"
 viewBox="0.00 0.00 468.49 332.00" xmlns="http://www.w3.org/2000/svg" xmlns:xlink="http://www.w3.org/1999/xlink">
<g id="graph0" class="graph" transform="scale(1 1) rotate(0) translate(4 328)">
<title>AST</title>
<polygon fill="white" stroke="transparent" points="-4,4 -4,-328 464.49,-328 464.49,4 -4,4"/>
<!-- x0x55f007c5f800 -->
<g id="node1" class="node">
<title>x0x55f007c5f800</title>
<ellipse fill="none" stroke="#000d16" cx="318.64" cy="-306" rx="69.59" ry="18"/>
<text text-anchor="middle" x="318.64" y="-302.3" font-family="Times,serif" font-size="14.00">[declaration]</text>
</g>
<!-- x0x55f007c5f860 -->
<g id="node2" class="node">
<title>x0x55f007c5f860</title>
<ellipse fill="none" stroke="#021d28" cx="117.64" cy="-234" rx="117.78" ry="18"/>
<text text-anchor="middle" x="117.64" y="-230.3" font-family="Times,serif" font-size="14.00">[declaration specifiers]</text>
</g>
<!-- x0x55f007c5f800&#45;&gt;x0x55f007c5f860 -->
<g id="edge1" class="edge">
<title>x0x55f007c5f800&#45;&gt;x0x55f007c5f860</title>
<path fill="none" stroke="black" d="M278.93,-291.17C248.52,-280.58 206.23,-265.85 172.57,-254.13"/>
<polygon fill="black" stroke="black" points="173.48,-250.74 162.88,-250.76 171.17,-257.35 173.48,-250.74"/>
</g>
<!-- x0x55f007c5f9c0 -->
<g id="node4" class="node">
<title>x0x55f007c5f9c0</title>
<ellipse fill="none" stroke="#4f8ba7" cx="318.64" cy="-234" rx="65.79" ry="18"/>
<text text-anchor="middle" x="318.64" y="-230.3" font-family="Times,serif" font-size="14.00">[declarator]</text>
</g>
<!-- x0x55f007c5f800&#45;&gt;x0x55f007c5f9c0 -->
<g id="edge3" class="edge">
<title>x0x55f007c5f800&#45;&gt;x0x55f007c5f9c0</title>
<path fill="none" stroke="black" d="M318.64,-287.7C318.64,-279.98 318.64,-270.71 318.64,-262.11"/>
<polygon fill="black" stroke="black" points="322.14,-262.1 318.64,-252.1 315.14,-262.1 322.14,-262.1"/>
</g>
<!-- x0x55f007c5f960 -->
<g id="node12" class="node">
<title>x0x55f007c5f960</title>
<ellipse fill="none" stroke="#b1bac1" cx="429.64" cy="-234" rx="27" ry="18"/>
<text text-anchor="middle" x="429.64" y="-230.3" font-family="Times,serif" font-size="14.00">;</text>
</g>
<!-- x0x55f007c5f800&#45;&gt;x0x55f007c5f960 -->
<g id="edge11" class="edge">
<title>x0x55f007c5f800&#45;&gt;x0x55f007c5f960</title>
<path fill="none" stroke="black" d="M343.83,-289.12C361.15,-278.19 384.15,-263.69 401.98,-252.44"/>
<polygon fill="black" stroke="black" points="404.18,-255.19 410.78,-246.9 400.45,-249.27 404.18,-255.19"/>
</g>
<!-- x0x55f007c5f8c0 -->
<g id="node3" class="node">
<title>x0x55f007c5f8c0</title>
<ellipse fill="none" stroke="#262d33" cx="117.64" cy="-162" rx="27" ry="18"/>
<text text-anchor="middle" x="117.64" y="-158.3" font-family="Times,serif" font-size="14.00">int</text>
</g>
<!-- x0x55f007c5f860&#45;&gt;x0x55f007c5f8c0 -->
<g id="edge2" class="edge">
<title>x0x55f007c5f860&#45;&gt;x0x55f007c5f8c0</title>
<path fill="none" stroke="black" d="M117.64,-215.7C117.64,-207.98 117.64,-198.71 117.64,-190.11"/>
<polygon fill="black" stroke="black" points="121.14,-190.1 117.64,-180.1 114.14,-190.1 121.14,-190.1"/>
</g>
<!-- x0x55f007c5fa20 -->
<g id="node5" class="node">
<title>x0x55f007c5fa20</title>
<ellipse fill="none" stroke="#b1bac1" cx="265.64" cy="-162" rx="51.19" ry="18"/>
<text text-anchor="middle" x="265.64" y="-158.3" font-family="Times,serif" font-size="14.00">[pointer]</text>
</g>
<!-- x0x55f007c5f9c0&#45;&gt;x0x55f007c5fa20 -->
<g id="edge4" class="edge">
<title>x0x55f007c5f9c0&#45;&gt;x0x55f007c5fa20</title>
<path fill="none" stroke="black" d="M305.81,-216.05C299.43,-207.63 291.59,-197.28 284.54,-187.97"/>
<polygon fill="black" stroke="black" points="287.18,-185.65 278.35,-179.79 281.6,-189.87 287.18,-185.65"/>
</g>
<!-- x0x55f007c5fc40 -->
<g id="node11" class="node">
<title>x0x55f007c5fc40</title>
<ellipse fill="none" stroke="#92afbf" cx="382.64" cy="-162" rx="48.19" ry="18"/>
<text text-anchor="middle" x="382.64" y="-158.3" font-family="Times,serif" font-size="14.00">$my_int</text>
</g>
<!-- x0x55f007c5f9c0&#45;&gt;x0x55f007c5fc40 -->
<g id="edge10" class="edge">
<title>x0x55f007c5f9c0&#45;&gt;x0x55f007c5fc40</title>
<path fill="none" stroke="black" d="M333.81,-216.41C341.86,-207.61 351.89,-196.63 360.77,-186.92"/>
<polygon fill="black" stroke="black" points="363.42,-189.21 367.58,-179.47 358.25,-184.49 363.42,-189.21"/>
</g>
<!-- x0x55f007c5fa80 -->
<g id="node6" class="node">
<title>x0x55f007c5fa80</title>
<ellipse fill="none" stroke="#b1bac1" cx="184.64" cy="-90" rx="27" ry="18"/>
<text text-anchor="middle" x="184.64" y="-86.3" font-family="Times,serif" font-size="14.00">*</text>
</g>
<!-- x0x55f007c5fa20&#45;&gt;x0x55f007c5fa80 -->
<g id="edge5" class="edge">
<title>x0x55f007c5fa20&#45;&gt;x0x55f007c5fa80</title>
<path fill="none" stroke="black" d="M247.26,-145.12C235.7,-135.12 220.66,-122.13 208.22,-111.38"/>
<polygon fill="black" stroke="black" points="210.34,-108.59 200.49,-104.7 205.76,-113.88 210.34,-108.59"/>
</g>
<!-- x0x55f007c5fb60 -->
<g id="node7" class="node">
<title>x0x55f007c5fb60</title>
<ellipse fill="none" stroke="#807b77" cx="265.64" cy="-90" rx="36" ry="18"/>
<text text-anchor="middle" x="265.64" y="-86.3" font-family="Times,serif" font-size="14.00">const</text>
</g>
<!-- x0x55f007c5fa20&#45;&gt;x0x55f007c5fb60 -->
<g id="edge6" class="edge">
<title>x0x55f007c5fa20&#45;&gt;x0x55f007c5fb60</title>
<path fill="none" stroke="black" d="M265.64,-143.7C265.64,-135.98 265.64,-126.71 265.64,-118.11"/>
<polygon fill="black" stroke="black" points="269.14,-118.1 265.64,-108.1 262.14,-118.1 269.14,-118.1"/>
</g>
<!-- x0x55f007c5fb00 -->
<g id="node8" class="node">
<title>x0x55f007c5fb00</title>
<ellipse fill="none" stroke="#b1bac1" cx="370.64" cy="-90" rx="51.19" ry="18"/>
<text text-anchor="middle" x="370.64" y="-86.3" font-family="Times,serif" font-size="14.00">[pointer]</text>
</g>
<!-- x0x55f007c5fa20&#45;&gt;x0x55f007c5fb00 -->
<g id="edge7" class="edge">
<title>x0x55f007c5fa20&#45;&gt;x0x55f007c5fb00</title>
<path fill="none" stroke="black" d="M288.42,-145.81C303.28,-135.9 322.88,-122.84 339.21,-111.95"/>
<polygon fill="black" stroke="black" points="341.52,-114.62 347.9,-106.16 337.64,-108.79 341.52,-114.62"/>
</g>
<!-- x0x55f007c5fbe0 -->
<g id="node9" class="node">
<title>x0x55f007c5fbe0</title>
<ellipse fill="none" stroke="#b1bac1" cx="325.64" cy="-18" rx="27" ry="18"/>
<text text-anchor="middle" x="325.64" y="-14.3" font-family="Times,serif" font-size="14.00">*</text>
</g>
<!-- x0x55f007c5fb00&#45;&gt;x0x55f007c5fbe0 -->
<g id="edge8" class="edge">
<title>x0x55f007c5fb00&#45;&gt;x0x55f007c5fbe0</title>
<path fill="none" stroke="black" d="M359.75,-72.05C354.23,-63.47 347.42,-52.89 341.35,-43.44"/>
<polygon fill="black" stroke="black" points="344.17,-41.35 335.82,-34.83 338.28,-45.13 344.17,-41.35"/>
</g>
<!-- x0x55f007c5fca0 -->
<g id="node10" class="node">
<title>x0x55f007c5fca0</title>
<ellipse fill="none" stroke="#807b77" cx="415.64" cy="-18" rx="44.69" ry="18"/>
<text text-anchor="middle" x="415.64" y="-14.3" font-family="Times,serif" font-size="14.00">volatile</text>
</g>
<!-- x0x55f007c5fb00&#45;&gt;x0x55f007c5fca0 -->
<g id="edge9" class="edge">
<title>x0x55f007c5fb00&#45;&gt;x0x55f007c5fca0</title>
<path fill="none" stroke="black" d="M381.53,-72.05C386.89,-63.71 393.47,-53.49 399.41,-44.25"/>
<polygon fill="black" stroke="black" points="402.38,-46.09 404.85,-35.79 396.49,-42.31 402.38,-46.09"/>
</g>
</g>
</svg>
